<svg xmlns="http://www.w3.org/2000/svg" width="920" height="500" font-family="Arial, sans-serif">
<defs>
  <marker id="arr" markerWidth="10" markerHeight="7" refX="9" refY="3.5" orient="auto"><polygon points="0 0,10 3.5,0 7" fill="#374151"/></marker>
  <marker id="arr-ora" markerWidth="10" markerHeight="7" refX="9" refY="3.5" orient="auto"><polygon points="0 0,10 3.5,0 7" fill="#d97706"/></marker>
  <marker id="arr-red" markerWidth="10" markerHeight="7" refX="9" refY="3.5" orient="auto"><polygon points="0 0,10 3.5,0 7" fill="#ef4444"/></marker>
</defs>
<rect width="920" height="500" fill="#f8fafc"/>
<rect width="920" height="48" fill="#1e40af"/>
<text x="460" y="31" text-anchor="middle" fill="white" font-size="16" font-weight="bold">Diagrama de Estados — Guía de Despacho · SIVEBO</text>

<!-- Initial state -->
<circle cx="55" cy="200" r="14" fill="#1e293b"/>

<!-- RECIBIDO -->
<rect x="85" y="175" width="145" height="50" rx="25" fill="#dbeafe" stroke="#3b82f6" stroke-width="2"/>
<text x="157" y="205" text-anchor="middle" fill="#1e293b" font-size="13" font-weight="bold">RECIBIDO</text>

<!-- EN_TRÁNSITO -->
<rect x="285" y="175" width="155" height="50" rx="25" fill="#dbeafe" stroke="#3b82f6" stroke-width="2"/>
<text x="362" y="205" text-anchor="middle" fill="#1e293b" font-size="13" font-weight="bold">EN_TRÁNSITO</text>

<!-- EN_SUCURSAL_DESTINO -->
<rect x="500" y="175" width="195" height="50" rx="25" fill="#dbeafe" stroke="#3b82f6" stroke-width="2"/>
<text x="597" y="198" text-anchor="middle" fill="#1e293b" font-size="12" font-weight="bold">EN_SUCURSAL</text>
<text x="597" y="215" text-anchor="middle" fill="#1e293b" font-size="12" font-weight="bold">_DESTINO</text>

<!-- ENTREGADO -->
<rect x="755" y="175" width="140" height="50" rx="25" fill="#d1fae5" stroke="#059669" stroke-width="2"/>
<text x="825" y="205" text-anchor="middle" fill="#065f46" font-size="13" font-weight="bold">ENTREGADO</text>

<!-- Final state (bullseye) -->
<circle cx="825" cy="308" r="16" fill="none" stroke="#1e293b" stroke-width="2"/>
<circle cx="825" cy="308" r="9" fill="#1e293b"/>

<!-- DEVUELTO -->
<rect x="280" y="368" width="145" height="50" rx="25" fill="#fef3c7" stroke="#d97706" stroke-width="2"/>
<text x="352" y="398" text-anchor="middle" fill="#92400e" font-size="13" font-weight="bold">DEVUELTO</text>

<!-- EXTRAVIADO -->
<rect x="495" y="368" width="145" height="50" rx="25" fill="#fee2e2" stroke="#ef4444" stroke-width="2"/>
<text x="567" y="398" text-anchor="middle" fill="#7f1d1d" font-size="13" font-weight="bold">EXTRAVIADO</text>

<!-- TRANSITIONS -->
<line x1="69" y1="200" x2="83" y2="200" stroke="#374151" stroke-width="1.5" marker-end="url(#arr)"/>

<line x1="230" y1="200" x2="283" y2="200" stroke="#374151" stroke-width="1.5" marker-end="url(#arr)"/>
<text x="256" y="191" text-anchor="middle" font-size="10" fill="#374151">despacha</text>

<path d="M 325,175 C 325,115 400,115 400,175" fill="none" stroke="#374151" stroke-width="1.5" marker-end="url(#arr)"/>
<text x="362" y="108" text-anchor="middle" font-size="10" fill="#374151">tránsito intermedio</text>

<line x1="440" y1="200" x2="498" y2="200" stroke="#374151" stroke-width="1.5" marker-end="url(#arr)"/>
<text x="469" y="191" text-anchor="middle" font-size="10" fill="#374151">llega</text>

<line x1="695" y1="200" x2="753" y2="200" stroke="#374151" stroke-width="1.5" marker-end="url(#arr)"/>
<text x="724" y="191" text-anchor="middle" font-size="10" fill="#374151">entrega</text>

<line x1="825" y1="225" x2="825" y2="290" stroke="#374151" stroke-width="1.5" marker-end="url(#arr)"/>

<line x1="348" y1="225" x2="342" y2="366" stroke="#d97706" stroke-width="1.5" stroke-dasharray="6,3" marker-end="url(#arr-ora)"/>
<text x="295" y="298" font-size="10" fill="#d97706">rechaza</text>

<path d="M 525,225 C 525,310 430,330 415,366" fill="none" stroke="#d97706" stroke-width="1.5" stroke-dasharray="6,3" marker-end="url(#arr-ora)"/>

<path d="M 395,225 C 395,310 490,330 510,366" fill="none" stroke="#ef4444" stroke-width="1.5" stroke-dasharray="6,3" marker-end="url(#arr-red)"/>
<text x="470" y="298" font-size="10" fill="#ef4444">no localizado</text>

<line x1="572" y1="225" x2="570" y2="366" stroke="#ef4444" stroke-width="1.5" stroke-dasharray="6,3" marker-end="url(#arr-red)"/>

<!-- LEGEND -->
<rect x="20" y="452" width="880" height="40" rx="4" fill="#f1f5f9" stroke="#e2e8f0"/>
<text x="45" y="468" font-size="11" fill="#64748b" font-weight="bold">LEYENDA:</text>
<circle cx="110" cy="472" r="7" fill="#1e293b"/>
<text x="125" y="476" font-size="11" fill="#1e293b">Inicio</text>
<circle cx="205" cy="472" r="9" fill="none" stroke="#1e293b" stroke-width="2"/>
<circle cx="205" cy="472" r="5" fill="#1e293b"/>
<text x="220" y="476" font-size="11" fill="#1e293b">Fin</text>
<rect x="300" y="463" width="16" height="16" rx="8" fill="#d1fae5" stroke="#059669"/>
<text x="322" y="476" font-size="11" fill="#1e293b">Éxito</text>
<line x1="410" y1="472" x2="435" y2="472" stroke="#d97706" stroke-width="1.5" stroke-dasharray="5,2" marker-end="url(#arr-ora)"/>
<text x="445" y="476" font-size="11" fill="#1e293b">Devolución</text>
<line x1="570" y1="472" x2="595" y2="472" stroke="#ef4444" stroke-width="1.5" stroke-dasharray="5,2" marker-end="url(#arr-red)"/>
<text x="605" y="476" font-size="11" fill="#1e293b">Extravío</text>
</svg>
